[IMG]http://i.imgur.com/zEcqF.jpg[/IMG]
[code]
Sleepwalk.with.Me.2012.DVDRIP.XVID.AC3.5.1-26K
 
http://uk.imdb.com/title/tt2077851/

Plot:
A burgeoning stand-up comedian struggles with the stress of a stalled career, a stale relationship, and the wild 

spurts of severe sleepwalking he is desperate to ignore.

Sources - Audio-dvd....Thanks :P
          VIDEO-dvd.....Thanks :P
          Subs-N/A....
Video
ID                                       : 0
Format                                   : MPEG-4 Visual
Format profile                           : Advanced Simple@L5
Format settings, BVOP                    : 2
Format settings, QPel                    : No
Format settings, GMC                     : No warppoints
Format settings, Matrix                  : Default (H.263)
Muxing mode                              : Packed bitstream
Codec ID                                 : XVID
Codec ID/Hint                            : XviD
Duration                                 : 1h 20mn
Bit rate                                 : 1 845 Kbps
Width                                    : 720 pixels
Height                                   : 384 pixels
Display aspect ratio                     : 1.85:1
Frame rate                               : 23.976 fps
Color space                              : YUV
Chroma subsampling                       : 4:2:0
Bit depth                                : 8 bits
Scan type                                : Progressive
Compression mode                         : Lossy
Bits/(Pixel*Frame)                       : 0.278
Stream size                              : 1.04 GiB (80%)
Writing library                          : XviD 64

Audio
ID                                       : 1
Format                                   : AC-3
Format/Info                              : Audio Coding 3
Codec ID                                 : 2000
Duration                                 : 1h 20mn
Bit rate mode                            : Constant
Bit rate                                 : 448 Kbps
Channel(s)                               : 6 channels
Sampling rate                            : 48.0 KHz
Compression mode                         : Lossy
Stream size                              : 259 MiB (19%)
Alignment                                : Aligned on interleaves
Interleave, duration                     : 4848057 ms (116 237.00 video frames)

Notes -
enjoy

[/code]

Screens:
[IMG]http://i.imgur.com/0yeP3.png[/IMG]
[IMG]http://i.imgur.com/avMsP.png[/IMG]
[IMG]http://i.imgur.com/ijzg2.png[/IMG]
[IMG]http://s6.postimage.org/tf7pirejl/vlcsnap_2012_12_16_15h43m13s221.png[/IMG]
[IMG]http://s6.postimage.org/4n83bixcx/vlcsnap_2012_12_16_15h43m22s47.png[/IMG]
[IMG]http://s6.postimage.org/mejppzcrl/vlcsnap_2012_12_16_15h43m27s118.png[/IMG]
[IMG]http://s6.postimage.org/wpw2in4gx/vlcsnap_2012_12_16_15h43m32s159.png[/IMG]

Greetz:
XtremeEncode|CM8|RX|VISION|HDSCENE|xTriLL|DTRG|CRYS|BIDA|RX|REFILL|INSPiRAL|AXED|HOPE|Anonymous|NOIR|

Blackjesus|Gabroo Punjab Deh|UNiQUE|DQ1|RESiSTANCE|HS||LEGION|STN|BOBBYBLUE|LIFT

To all the people who have helped me  you know who you are

Anything to offer email us @: 26k@hushmail.me
<<bullying has to be stopped now!>>